<?xml version="1.0" standalone="no"?>
<!DOCTYPE svg PUBLIC "-//W3C//DTD SVG 20010904//EN"
 "http://www.w3.org/TR/2001/REC-SVG-20010904/DTD/svg10.dtd">
<svg version="1.0" xmlns="http://www.w3.org/2000/svg"
 width="32.000000pt" height="32.000000pt" viewBox="0 0 32.000000 32.000000"
 preserveAspectRatio="xMidYMid meet">

<g transform="translate(0.000000,32.000000) scale(0.100000,-0.100000)"
fill="#000000" stroke="none">
<path d="M125 266 c-3 -9 -7 -22 -9 -30 -5 -16 29 -76 44 -76 6 0 19 14 29 31
27 45 15 83 -27 87 -22 2 -34 -2 -37 -12z"/>
<path d="M97 154 c-27 -14 -44 -54 -33 -73 4 -5 20 -12 37 -16 23 -5 34 -3 45
12 14 17 14 17 28 -1 10 -13 22 -17 38 -12 41 11 51 22 44 50 -8 33 -54 58
-78 42 -13 -8 -23 -8 -36 0 -14 9 -24 8 -45 -2z"/>
</g>
</svg>
